# xmcd
#
# Track frame offsets: 
#        150
#        13298
#        35246
#        59320
#        82047
#        102011
#        134323
#
# Disc length: 2410 seconds
#
# Revision: 0
# Processed by: cddbd v1.5.2PL0 Copyright (c) Steve Scherf et al.
# Submitted via: ExactAudioCopy v1.0b4
#
DISCID=5c096807
DTITLE=Alexis Korner - Will The Circle Be Unbroken (LP)
DYEAR=1980
DGENRE=Blues
TTITLE0=One Scotch, One Bourbon, One Beer
TTITLE1=Stump Blues
TTITLE2=Stream Line Train - My Babe
TTITLE3=32 - 20 Blues
TTITLE4=High Heel Sneakers
TTITLE5=Will The Circle Be Unbroken
TTITLE6=Mary Open The Door
EXTD=
EXTT0=
EXTT1=
EXTT2=
EXTT3=
EXTT4=
EXTT5=
EXTT6=
PLAYORDER=
